<svg width="24" height="24" viewBox="0 0 24 24" fill="currentColor" xmlns="http://www.w3.org/2000/svg">
<path fill-rule="evenodd" clip-rule="evenodd" d="M11 4C14.866 4 18 7.13401 18 11C18 12.5817 17.4754 14.0409 16.5907 15.213L19.6359 18.2264C19.8359 18.4243 19.9359 18.5232 19.9735 18.6376C20.0066 18.7383 20.0069 18.8468 19.9743 18.9476C19.9373 19.0623 19.8378 19.1617 19.6389 19.3607L19.356 19.6435C19.159 19.8406 19.0604 19.9391 18.9467 19.9763C18.8467 20.0089 18.7389 20.0092 18.6387 19.9771C18.5248 19.9405 18.4257 19.8425 18.2276 19.6465L15.1712 16.622C14.0063 17.4878 12.563 18 11 18C7.13401 18 4 14.866 4 11C4 7.13401 7.13401 4 11 4ZM11 6C8.23858 6 6 8.23858 6 11C6 13.7614 8.23858 16 11 16C13.7614 16 16 13.7614 16 11C16 8.23858 13.7614 6 11 6Z"/>
</svg>
